# xmcd
#
# Track frame offsets:
#	150
#	12815
#	25560
#	38796
#	51288
#	64300
#	77168
#	90338
#	103191
#	115785
#	129186
#	142795
#	155495
#	168425
#	180538
#	195005
#	210074
#	221504
#	235495
#	248614
#
# Disc length: 3504 seconds
#
# Revision: 1
# Processed by: cddbd v1.5.2PL0 Copyright (c) Steve Scherf et al.
# Submitted via: EZCDAudioConverter 1.2.5.1
#
DISCID=f10dae14
DTITLE=Various Artist - 100 Tubes Blues cd2 1940's
DYEAR=1949
DGENRE=Blues
TTITLE0=Sonny Boy Williamson - Shake the Boogie
TTITLE1=Big Joe Williams - Baby, please don't go
TTITLE2=Jay McShann - Confessin' the blues
TTITLE3=Walter Davis - New "Come back Baby"
TTITLE4=Bukka White - Strange place blues
TTITLE5=Tampa Red - I can't get along with you
TTITLE6=Louis Jordan - I'm gonna move to the outskirts of town
TTITLE7=Dinah Washington - Evil gal blues
TTITLE8=Eddie "Cleanhead" Vinson - Cleanhead blues
TTITLE9=Amos Milburn - Down the road apiece
TTITLE10=T-Bone Walker - Call it stormy monday but tuesday is just as bad
TTITLE11=Lightnin' Hopkins - You are not going to worry my life anymore
TTITLE12=Arthur "Big Boy" Crudup - That's all right
TTITLE13=Muddy Waters - I can't be satisfied
TTITLE14=Sticks McGee - Drinkin' wine, Spo-Dee-O-Dee
TTITLE15=Big Bill Broonzy - Five feet seven
TTITLE16=Smokey Hogg - Long tall Mama
TTITLE17=Pee Wee Crayton - Texas hop
TTITLE18=Little Johnny Jones - Big town playboy
TTITLE19=John Lee Hooker - Boogie chillen
EXTD=
EXTT0=
EXTT1=
EXTT2=
EXTT3=
EXTT4=
EXTT5=
EXTT6=
EXTT7=
EXTT8=
EXTT9=
EXTT10=
EXTT11=
EXTT12=
EXTT13=
EXTT14=
EXTT15=
EXTT16=
EXTT17=
EXTT18=
EXTT19=
PLAYORDER=
